<mxfile host="app.diagrams.net" modified="2021-12-08T00:25:08.313Z" agent="5.0 (X11)" etag="mkCJS6e7_r9-vrl6np9f" version="15.9.1" type="github">
  <diagram id="xQQLMu3mJxe8vgR-m3Op" name="Page-1">
    <mxGraphModel dx="868" dy="464" grid="1" gridSize="10" guides="1" tooltips="1" connect="1" arrows="1" fold="1" page="1" pageScale="1" pageWidth="827" pageHeight="1169" math="0" shadow="0">
      <root>
        <mxCell id="0" />
        <mxCell id="1" parent="0" />
      </root>
    </mxGraphModel>
  </diagram>
</mxfile>
